<svg xmlns="http://www.w3.org/2000/svg" xmlns:xlink="http://www.w3.org/1999/xlink" width="400" zoomAndPan="magnify" viewBox="0 0 300 112.499997" height="150" preserveAspectRatio="xMidYMid meet" version="1.2"><defs/><g id="2e1d745b4b"><g style="fill:#000000;fill-opacity:1;"><g transform="translate(0.663721, 59.683313)"><path style="stroke:none" d="M 55.625 -52.265625 C 56.019531 -52.265625 56.363281 -52.113281 56.65625 -51.8125 C 56.957031 -51.507812 57.109375 -51.160156 57.109375 -50.765625 C 57.054688 -49.117188 56.976562 -46.226562 56.875 -42.09375 C 56.78125 -37.96875 56.734375 -32.644531 56.734375 -26.125 C 56.734375 -19.65625 56.78125 -14.34375 56.875 -10.1875 C 56.976562 -6.03125 57.054688 -3.132812 57.109375 -1.5 C 57.109375 -1.09375 56.957031 -0.738281 56.65625 -0.4375 C 56.363281 -0.144531 56.019531 0 55.625 0 L 46.890625 0 C 46.484375 0 46.128906 -0.144531 45.828125 -0.4375 C 45.535156 -0.738281 45.414062 -1.09375 45.46875 -1.5 C 45.519531 -3.132812 45.59375 -6.03125 45.6875 -10.1875 C 45.789062 -14.34375 45.84375 -19.65625 45.84375 -26.125 C 45.84375 -29.257812 45.828125 -32.109375 45.796875 -34.671875 C 45.773438 -37.234375 45.738281 -39.535156 45.6875 -41.578125 C 45.6875 -41.984375 45.5 -42.195312 45.125 -42.21875 C 44.75 -42.238281 44.515625 -42.050781 44.421875 -41.65625 C 44.066406 -39.664062 43.664062 -37.363281 43.21875 -34.75 C 42.769531 -32.132812 42.300781 -29.257812 41.8125 -26.125 C 40.757812 -19.507812 39.9375 -14.097656 39.34375 -9.890625 C 38.75 -5.679688 38.375 -2.804688 38.21875 -1.265625 C 38.070312 -0.421875 37.578125 0 36.734375 0 L 24.109375 0 C 23.210938 0 22.71875 -0.421875 22.625 -1.265625 C 22.425781 -2.804688 22.039062 -5.679688 21.46875 -9.890625 C 20.894531 -14.097656 20.0625 -19.507812 18.96875 -26.125 C 18.46875 -29.257812 17.992188 -32.132812 17.546875 -34.75 C 17.097656 -37.363281 16.695312 -39.664062 16.34375 -41.65625 C 16.300781 -42.050781 16.09375 -42.238281 15.71875 -42.21875 C 15.34375 -42.195312 15.15625 -41.984375 15.15625 -41.578125 C 15.101562 -39.535156 15.0625 -37.234375 15.03125 -34.671875 C 15.007812 -32.109375 15 -29.257812 15 -26.125 C 15 -19.65625 15.046875 -14.34375 15.140625 -10.1875 C 15.242188 -6.03125 15.320312 -3.132812 15.375 -1.5 C 15.375 -1.09375 15.238281 -0.738281 14.96875 -0.4375 C 14.695312 -0.144531 14.335938 0 13.890625 0 L 5.21875 0 C 4.769531 0 4.410156 -0.144531 4.140625 -0.4375 C 3.867188 -0.738281 3.734375 -1.09375 3.734375 -1.5 C 3.785156 -3.132812 3.859375 -6.03125 3.953125 -10.1875 C 4.054688 -14.34375 4.109375 -19.65625 4.109375 -26.125 C 4.109375 -32.644531 4.054688 -37.96875 3.953125 -42.09375 C 3.859375 -46.226562 3.785156 -49.117188 3.734375 -50.765625 C 3.734375 -51.160156 3.867188 -51.507812 4.140625 -51.8125 C 4.410156 -52.113281 4.769531 -52.265625 5.21875 -52.265625 L 22.171875 -52.265625 C 23.015625 -52.265625 23.488281 -51.835938 23.59375 -50.984375 C 23.789062 -49.441406 24.175781 -46.582031 24.75 -42.40625 C 25.320312 -38.226562 26.15625 -32.800781 27.25 -26.125 C 27.75 -23.09375 28.207031 -20.304688 28.625 -17.765625 C 29.050781 -15.222656 29.4375 -12.957031 29.78125 -10.96875 C 29.832031 -10.625 30.03125 -10.453125 30.375 -10.453125 C 30.726562 -10.453125 30.929688 -10.625 30.984375 -10.96875 C 31.378906 -12.957031 31.785156 -15.222656 32.203125 -17.765625 C 32.628906 -20.304688 33.09375 -23.09375 33.59375 -26.125 C 34.632812 -32.800781 35.453125 -38.226562 36.046875 -42.40625 C 36.648438 -46.582031 37.023438 -49.441406 37.171875 -50.984375 C 37.273438 -51.835938 37.773438 -52.265625 38.671875 -52.265625 Z M 55.625 -52.265625 "/></g></g><g style="fill:#000000;fill-opacity:1;"><g transform="translate(52.32484, 59.683313)"><path style="stroke:none" d="M 40.09375 -36.5 C 40.09375 -35.457031 40.066406 -34.460938 40.015625 -33.515625 C 39.960938 -32.578125 39.910156 -31.535156 39.859375 -30.390625 C 39.816406 -29.242188 39.796875 -27.820312 39.796875 -26.125 C 39.796875 -24.4375 39.816406 -23.019531 39.859375 -21.875 C 39.910156 -20.726562 39.960938 -19.679688 40.015625 -18.734375 C 40.066406 -17.785156 40.09375 -16.789062 40.09375 -15.75 C 40.09375 -12.5625 39.519531 -9.734375 38.375 -7.265625 C 37.226562 -4.804688 35.320312 -2.867188 32.65625 -1.453125 C 30 -0.0351562 26.429688 0.671875 21.953125 0.671875 C 17.367188 0.671875 13.742188 -0.125 11.078125 -1.71875 C 8.421875 -3.3125 6.53125 -5.363281 5.40625 -7.875 C 4.289062 -10.382812 3.734375 -13.007812 3.734375 -15.75 C 3.734375 -16.789062 3.753906 -17.785156 3.796875 -18.734375 C 3.847656 -19.679688 3.910156 -20.726562 3.984375 -21.875 C 4.066406 -23.019531 4.109375 -24.4375 4.109375 -26.125 C 4.109375 -27.820312 4.066406 -29.242188 3.984375 -30.390625 C 3.910156 -31.535156 3.847656 -32.578125 3.796875 -33.515625 C 3.753906 -34.460938 3.734375 -35.457031 3.734375 -36.5 C 3.734375 -39.6875 4.316406 -42.507812 5.484375 -44.96875 C 6.648438 -47.4375 8.550781 -49.378906 11.1875 -50.796875 C 13.832031 -52.222656 17.421875 -52.9375 21.953125 -52.9375 C 26.484375 -52.9375 30.078125 -52.140625 32.734375 -50.546875 C 35.398438 -48.953125 37.289062 -46.894531 38.40625 -44.375 C 39.53125 -41.863281 40.09375 -39.238281 40.09375 -36.5 Z M 21.796875 -7.234375 C 23.742188 -7.234375 25.1875 -7.679688 26.125 -8.578125 C 27.070312 -9.472656 27.679688 -10.582031 27.953125 -11.90625 C 28.234375 -13.226562 28.375 -14.507812 28.375 -15.75 L 28.375 -36.5 C 28.375 -36.945312 28.320312 -37.628906 28.21875 -38.546875 C 28.125 -39.472656 27.890625 -40.429688 27.515625 -41.421875 C 27.140625 -42.421875 26.523438 -43.269531 25.671875 -43.96875 C 24.828125 -44.664062 23.632812 -45.015625 22.09375 -45.015625 C 20.101562 -45.015625 18.632812 -44.566406 17.6875 -43.671875 C 16.75 -42.773438 16.15625 -41.664062 15.90625 -40.34375 C 15.65625 -39.03125 15.53125 -37.75 15.53125 -36.5 L 15.53125 -15.75 C 15.53125 -15.300781 15.566406 -14.613281 15.640625 -13.6875 C 15.710938 -12.769531 15.9375 -11.8125 16.3125 -10.8125 C 16.6875 -9.820312 17.304688 -8.976562 18.171875 -8.28125 C 19.046875 -7.582031 20.253906 -7.234375 21.796875 -7.234375 Z M 21.796875 -7.234375 "/></g></g><g style="fill:#000000;fill-opacity:1;"><g transform="translate(86.441648, 59.683313)"><path style="stroke:none" d="M 15.53125 -37.84375 C 15.53125 -36.300781 16.125 -35.070312 17.3125 -34.15625 C 18.507812 -33.238281 20.066406 -32.441406 21.984375 -31.765625 C 23.898438 -31.097656 25.925781 -30.390625 28.0625 -29.640625 C 30.207031 -28.890625 32.238281 -27.929688 34.15625 -26.765625 C 36.070312 -25.597656 37.625 -24.03125 38.8125 -22.0625 C 40.007812 -20.09375 40.609375 -17.539062 40.609375 -14.40625 C 40.609375 -11.21875 40.035156 -8.492188 38.890625 -6.234375 C 37.742188 -3.972656 35.835938 -2.242188 33.171875 -1.046875 C 30.515625 0.148438 26.945312 0.75 22.46875 0.75 C 18.1875 0.75 14.703125 0.0507812 12.015625 -1.34375 C 9.328125 -2.738281 7.320312 -4.566406 6 -6.828125 C 4.6875 -9.097656 3.929688 -11.5 3.734375 -14.03125 C 3.679688 -14.425781 3.800781 -14.785156 4.09375 -15.109375 C 4.394531 -15.441406 4.769531 -15.609375 5.21875 -15.609375 L 14.03125 -15.609375 C 14.925781 -15.609375 15.398438 -15.160156 15.453125 -14.265625 C 15.554688 -13.367188 15.816406 -12.367188 16.234375 -11.265625 C 16.660156 -10.171875 17.359375 -9.210938 18.328125 -8.390625 C 19.296875 -7.578125 20.628906 -7.171875 22.328125 -7.171875 C 24.316406 -7.171875 25.769531 -7.503906 26.6875 -8.171875 C 27.613281 -8.847656 28.210938 -9.742188 28.484375 -10.859375 C 28.753906 -11.984375 28.890625 -13.164062 28.890625 -14.40625 C 28.890625 -16 28.28125 -17.269531 27.0625 -18.21875 C 25.84375 -19.164062 24.273438 -19.972656 22.359375 -20.640625 C 20.441406 -21.316406 18.410156 -22.023438 16.265625 -22.765625 C 14.128906 -23.515625 12.113281 -24.472656 10.21875 -25.640625 C 8.332031 -26.816406 6.78125 -28.375 5.5625 -30.3125 C 4.34375 -32.25 3.734375 -34.757812 3.734375 -37.84375 C 3.734375 -41.03125 4.316406 -43.753906 5.484375 -46.015625 C 6.648438 -48.285156 8.550781 -50.015625 11.1875 -51.203125 C 13.832031 -52.398438 17.421875 -53 21.953125 -53 C 26.179688 -53 29.585938 -52.300781 32.171875 -50.90625 C 34.765625 -49.519531 36.679688 -47.691406 37.921875 -45.421875 C 39.171875 -43.160156 39.894531 -40.757812 40.09375 -38.21875 C 40.09375 -37.820312 39.953125 -37.460938 39.671875 -37.140625 C 39.398438 -36.816406 39.039062 -36.65625 38.59375 -36.65625 L 29.78125 -36.65625 C 28.882812 -36.65625 28.390625 -37.101562 28.296875 -38 C 28.242188 -38.894531 28.054688 -39.890625 27.734375 -40.984375 C 27.410156 -42.078125 26.8125 -43.035156 25.9375 -43.859375 C 25.070312 -44.679688 23.789062 -45.09375 22.09375 -45.09375 C 20.101562 -45.09375 18.632812 -44.753906 17.6875 -44.078125 C 16.75 -43.410156 16.15625 -42.515625 15.90625 -41.390625 C 15.65625 -40.273438 15.53125 -39.09375 15.53125 -37.84375 Z M 15.53125 -37.84375 "/></g></g><g style="fill:#000000;fill-opacity:1;"><g transform="translate(117.422681, 59.683313)"><path style="stroke:none" d="M 40.234375 -45.84375 C 40.234375 -45.4375 40.082031 -45.082031 39.78125 -44.78125 C 39.488281 -44.488281 39.144531 -44.34375 38.75 -44.34375 L 29.046875 -44.34375 C 28.640625 -44.34375 28.300781 -44.207031 28.03125 -43.9375 C 27.757812 -43.664062 27.625 -43.328125 27.625 -42.921875 C 27.570312 -40.785156 27.53125 -38.320312 27.5 -35.53125 C 27.476562 -32.75 27.46875 -29.613281 27.46875 -26.125 C 27.46875 -19.65625 27.503906 -14.34375 27.578125 -10.1875 C 27.660156 -6.03125 27.722656 -3.132812 27.765625 -1.5 C 27.816406 -1.09375 27.691406 -0.738281 27.390625 -0.4375 C 27.097656 -0.144531 26.753906 0 26.359375 0 L 17.625 0 C 17.21875 0 16.863281 -0.144531 16.5625 -0.4375 C 16.269531 -0.738281 16.125 -1.09375 16.125 -1.5 C 16.226562 -3.132812 16.316406 -6.03125 16.390625 -10.1875 C 16.460938 -14.34375 16.5 -19.65625 16.5 -26.125 C 16.5 -29.613281 16.484375 -32.75 16.453125 -35.53125 C 16.429688 -38.320312 16.394531 -40.785156 16.34375 -42.921875 C 16.34375 -43.328125 16.207031 -43.664062 15.9375 -43.9375 C 15.664062 -44.207031 15.304688 -44.34375 14.859375 -44.34375 L 5.21875 -44.34375 C 4.820312 -44.34375 4.472656 -44.488281 4.171875 -44.78125 C 3.878906 -45.082031 3.734375 -45.4375 3.734375 -45.84375 L 3.734375 -50.765625 C 3.734375 -51.160156 3.878906 -51.507812 4.171875 -51.8125 C 4.472656 -52.113281 4.820312 -52.265625 5.21875 -52.265625 L 38.75 -52.265625 C 39.144531 -52.265625 39.488281 -52.113281 39.78125 -51.8125 C 40.082031 -51.507812 40.234375 -51.160156 40.234375 -50.765625 Z M 40.234375 -45.84375 "/></g></g><g style="fill:#000000;fill-opacity:1;"><g transform="translate(152.963385, 59.683313)"><path style="stroke:none" d=""/></g></g><g style="fill:#000000;fill-opacity:1;"><g transform="translate(0.663721, 105.230876)"><path style="stroke:none" d="M 42.46875 -41.109375 L 49.28125 -41.109375 C 49.664062 -41.109375 49.96875 -40.960938 50.1875 -40.671875 C 50.40625 -40.378906 50.472656 -40.054688 50.390625 -39.703125 C 50.117188 -38.367188 49.671875 -36.085938 49.046875 -32.859375 C 48.421875 -29.628906 47.65625 -25.53125 46.75 -20.5625 C 45.851562 -15.3125 45.148438 -11.03125 44.640625 -7.71875 C 44.128906 -4.414062 43.773438 -2.175781 43.578125 -1 C 43.503906 -0.332031 43.132812 0 42.46875 0 L 32.53125 0 C 31.875 0 31.503906 -0.332031 31.421875 -1 C 31.265625 -2.207031 30.960938 -4.457031 30.515625 -7.75 C 30.066406 -11.039062 29.410156 -15.3125 28.546875 -20.5625 C 28.273438 -22.28125 28.007812 -23.898438 27.75 -25.421875 C 27.5 -26.953125 27.253906 -28.382812 27.015625 -29.71875 C 26.972656 -29.988281 26.816406 -30.125 26.546875 -30.125 C 26.273438 -30.125 26.117188 -29.988281 26.078125 -29.71875 C 25.835938 -28.382812 25.59375 -26.953125 25.34375 -25.421875 C 25.09375 -23.898438 24.828125 -22.28125 24.546875 -20.5625 C 23.691406 -15.3125 23.035156 -11.039062 22.578125 -7.75 C 22.128906 -4.457031 21.828125 -2.207031 21.671875 -1 C 21.597656 -0.332031 21.226562 0 20.5625 0 L 10.625 0 C 9.957031 0 9.566406 -0.332031 9.453125 -1 C 9.296875 -2.175781 8.960938 -4.414062 8.453125 -7.71875 C 7.941406 -11.03125 7.238281 -15.3125 6.34375 -20.5625 C 5.445312 -25.53125 4.679688 -29.628906 4.046875 -32.859375 C 3.421875 -36.085938 2.953125 -38.367188 2.640625 -39.703125 C 2.566406 -40.054688 2.644531 -40.378906 2.875 -40.671875 C 3.113281 -40.960938 3.425781 -41.109375 3.8125 -41.109375 L 10.625 -41.109375 C 11.289062 -41.109375 11.664062 -40.773438 11.75 -40.109375 C 11.945312 -38.898438 12.289062 -36.640625 12.78125 -33.328125 C 13.269531 -30.023438 13.984375 -25.769531 14.921875 -20.5625 C 15.117188 -19.382812 15.3125 -18.273438 15.5 -17.234375 C 15.695312 -16.203125 15.875 -15.210938 16.03125 -14.265625 C 16.113281 -13.992188 16.28125 -13.859375 16.53125 -13.859375 C 16.789062 -13.859375 16.957031 -13.992188 17.03125 -14.265625 C 17.1875 -15.210938 17.351562 -16.210938 17.53125 -17.265625 C 17.707031 -18.328125 17.875 -19.425781 18.03125 -20.5625 C 18.894531 -25.769531 19.550781 -30.023438 20 -33.328125 C 20.445312 -36.640625 20.75 -38.898438 20.90625 -40.109375 C 20.988281 -40.773438 21.378906 -41.109375 22.078125 -41.109375 L 31.015625 -41.109375 C 31.710938 -41.109375 32.101562 -40.773438 32.1875 -40.109375 C 32.34375 -38.898438 32.644531 -36.640625 33.09375 -33.328125 C 33.539062 -30.023438 34.195312 -25.769531 35.0625 -20.5625 C 35.21875 -19.425781 35.382812 -18.328125 35.5625 -17.265625 C 35.738281 -16.210938 35.90625 -15.210938 36.0625 -14.265625 C 36.101562 -13.992188 36.257812 -13.859375 36.53125 -13.859375 C 36.800781 -13.859375 36.976562 -13.992188 37.0625 -14.265625 C 37.21875 -15.210938 37.394531 -16.203125 37.59375 -17.234375 C 37.789062 -18.273438 37.984375 -19.382812 38.171875 -20.5625 C 39.078125 -25.800781 39.785156 -30.066406 40.296875 -33.359375 C 40.804688 -36.648438 41.15625 -38.898438 41.34375 -40.109375 C 41.425781 -40.773438 41.800781 -41.109375 42.46875 -41.109375 Z M 42.46875 -41.109375 "/></g></g><g style="fill:#000000;fill-opacity:1;"><g transform="translate(42.59678, 105.230876)"><path style="stroke:none" d="M 28.140625 0 C 27.472656 0 27.078125 -0.3125 26.953125 -0.9375 C 26.878906 -1.488281 26.742188 -2.269531 26.546875 -3.28125 C 26.347656 -4.300781 26.113281 -5.554688 25.84375 -7.046875 C 25.726562 -7.671875 25.359375 -7.984375 24.734375 -7.984375 L 14.09375 -7.984375 C 13.46875 -7.984375 13.078125 -7.671875 12.921875 -7.046875 C 12.648438 -5.554688 12.425781 -4.300781 12.25 -3.28125 C 12.070312 -2.269531 11.925781 -1.488281 11.8125 -0.9375 C 11.726562 -0.3125 11.351562 0 10.6875 0 L 3.8125 0 C 3.425781 0 3.113281 -0.144531 2.875 -0.4375 C 2.644531 -0.726562 2.585938 -1.050781 2.703125 -1.40625 C 3.015625 -2.78125 3.539062 -5.082031 4.28125 -8.3125 C 5.03125 -11.539062 5.929688 -15.625 6.984375 -20.5625 C 8.117188 -25.84375 9 -30.132812 9.625 -33.4375 C 10.257812 -36.75 10.671875 -38.992188 10.859375 -40.171875 C 10.984375 -40.796875 11.359375 -41.109375 11.984375 -41.109375 L 26.78125 -41.109375 C 27.445312 -41.109375 27.835938 -40.796875 27.953125 -40.171875 C 28.148438 -38.992188 28.5625 -36.75 29.1875 -33.4375 C 29.8125 -30.132812 30.675781 -25.84375 31.78125 -20.5625 C 32.832031 -15.625 33.726562 -11.539062 34.46875 -8.3125 C 35.21875 -5.082031 35.769531 -2.78125 36.125 -1.40625 C 36.195312 -1.050781 36.113281 -0.726562 35.875 -0.4375 C 35.644531 -0.144531 35.351562 0 35 0 Z M 15.796875 -14.21875 L 23.03125 -14.21875 C 23.375 -14.21875 23.660156 -14.351562 23.890625 -14.625 C 24.128906 -14.894531 24.210938 -15.207031 24.140625 -15.5625 C 23.984375 -16.34375 23.816406 -17.15625 23.640625 -18 C 23.460938 -18.84375 23.273438 -19.695312 23.078125 -20.5625 C 22.492188 -23.34375 21.957031 -25.859375 21.46875 -28.109375 C 20.976562 -30.359375 20.535156 -32.304688 20.140625 -33.953125 C 20.066406 -34.335938 19.820312 -34.53125 19.40625 -34.53125 C 19 -34.53125 18.738281 -34.335938 18.625 -33.953125 C 18.269531 -32.304688 17.835938 -30.359375 17.328125 -28.109375 C 16.816406 -25.859375 16.269531 -23.34375 15.6875 -20.5625 C 15.488281 -19.695312 15.300781 -18.84375 15.125 -18 C 14.945312 -17.15625 14.78125 -16.34375 14.625 -15.5625 C 14.539062 -15.207031 14.617188 -14.894531 14.859375 -14.625 C 15.097656 -14.351562 15.410156 -14.21875 15.796875 -14.21875 Z M 15.796875 -14.21875 "/></g></g><g style="fill:#000000;fill-opacity:1;"><g transform="translate(69.318427, 105.230876)"><path style="stroke:none" d="M 31.65625 -36.0625 C 31.65625 -35.75 31.535156 -35.472656 31.296875 -35.234375 C 31.066406 -35.003906 30.796875 -34.890625 30.484375 -34.890625 L 22.84375 -34.890625 C 22.53125 -34.890625 22.265625 -34.78125 22.046875 -34.5625 C 21.835938 -34.34375 21.734375 -34.078125 21.734375 -33.765625 C 21.691406 -32.085938 21.660156 -30.148438 21.640625 -27.953125 C 21.617188 -25.765625 21.609375 -23.300781 21.609375 -20.5625 C 21.609375 -15.46875 21.640625 -11.285156 21.703125 -8.015625 C 21.765625 -4.742188 21.8125 -2.460938 21.84375 -1.171875 C 21.882812 -0.859375 21.785156 -0.582031 21.546875 -0.34375 C 21.316406 -0.113281 21.046875 0 20.734375 0 L 13.859375 0 C 13.546875 0 13.269531 -0.113281 13.03125 -0.34375 C 12.800781 -0.582031 12.6875 -0.859375 12.6875 -1.171875 C 12.757812 -2.460938 12.828125 -4.742188 12.890625 -8.015625 C 12.953125 -11.285156 12.984375 -15.46875 12.984375 -20.5625 C 12.984375 -23.300781 12.972656 -25.765625 12.953125 -27.953125 C 12.929688 -30.148438 12.898438 -32.085938 12.859375 -33.765625 C 12.859375 -34.078125 12.75 -34.34375 12.53125 -34.5625 C 12.320312 -34.78125 12.039062 -34.890625 11.6875 -34.890625 L 4.109375 -34.890625 C 3.796875 -34.890625 3.519531 -35.003906 3.28125 -35.234375 C 3.050781 -35.472656 2.9375 -35.75 2.9375 -36.0625 L 2.9375 -39.9375 C 2.9375 -40.25 3.050781 -40.519531 3.28125 -40.75 C 3.519531 -40.988281 3.796875 -41.109375 4.109375 -41.109375 L 30.484375 -41.109375 C 30.796875 -41.109375 31.066406 -40.988281 31.296875 -40.75 C 31.535156 -40.519531 31.65625 -40.25 31.65625 -39.9375 Z M 31.65625 -36.0625 "/></g></g><g style="fill:#000000;fill-opacity:1;"><g transform="translate(93.867126, 105.230876)"><path style="stroke:none" d="M 17.15625 -5.703125 C 18.519531 -5.703125 19.59375 -5.984375 20.375 -6.546875 C 21.164062 -7.117188 21.722656 -7.820312 22.046875 -8.65625 C 22.378906 -9.5 22.585938 -10.375 22.671875 -11.28125 C 22.742188 -12.019531 23.132812 -12.390625 23.84375 -12.390625 L 30.359375 -12.390625 C 30.710938 -12.390625 31 -12.257812 31.21875 -12 C 31.4375 -11.75 31.546875 -11.46875 31.546875 -11.15625 C 31.390625 -8.882812 30.820312 -6.867188 29.84375 -5.109375 C 28.863281 -3.347656 27.351562 -1.96875 25.3125 -0.96875 C 23.28125 0.03125 20.597656 0.53125 17.265625 0.53125 C 13.660156 0.53125 10.8125 -0.09375 8.71875 -1.34375 C 6.625 -2.601562 5.132812 -4.21875 4.25 -6.1875 C 3.375 -8.164062 2.9375 -10.234375 2.9375 -12.390625 C 2.9375 -13.210938 2.953125 -13.992188 2.984375 -14.734375 C 3.023438 -15.484375 3.078125 -16.304688 3.140625 -17.203125 C 3.203125 -18.109375 3.234375 -19.226562 3.234375 -20.5625 C 3.234375 -21.882812 3.203125 -22.992188 3.140625 -23.890625 C 3.078125 -24.796875 3.023438 -25.617188 2.984375 -26.359375 C 2.953125 -27.109375 2.9375 -27.894531 2.9375 -28.71875 C 2.9375 -31.226562 3.394531 -33.453125 4.3125 -35.390625 C 5.238281 -37.328125 6.738281 -38.851562 8.8125 -39.96875 C 10.882812 -41.082031 13.703125 -41.640625 17.265625 -41.640625 C 20.597656 -41.640625 23.28125 -41.082031 25.3125 -39.96875 C 27.351562 -38.851562 28.863281 -37.414062 29.84375 -35.65625 C 30.820312 -33.894531 31.390625 -32.015625 31.546875 -30.015625 C 31.546875 -29.660156 31.4375 -29.351562 31.21875 -29.09375 C 31 -28.84375 30.710938 -28.71875 30.359375 -28.71875 L 23.4375 -28.71875 C 22.726562 -28.71875 22.335938 -29.09375 22.265625 -29.84375 C 22.222656 -30.5 22.070312 -31.269531 21.8125 -32.15625 C 21.5625 -33.039062 21.09375 -33.804688 20.40625 -34.453125 C 19.71875 -35.097656 18.710938 -35.421875 17.390625 -35.421875 C 15.816406 -35.421875 14.65625 -35.066406 13.90625 -34.359375 C 13.164062 -33.648438 12.695312 -32.773438 12.5 -31.734375 C 12.3125 -30.703125 12.21875 -29.695312 12.21875 -28.71875 L 12.21875 -12.390625 C 12.21875 -12.035156 12.242188 -11.492188 12.296875 -10.765625 C 12.359375 -10.046875 12.535156 -9.296875 12.828125 -8.515625 C 13.128906 -7.734375 13.617188 -7.066406 14.296875 -6.515625 C 14.984375 -5.972656 15.9375 -5.703125 17.15625 -5.703125 Z M 17.15625 -5.703125 "/></g></g><g style="fill:#000000;fill-opacity:1;"><g transform="translate(120.471524, 105.230876)"><path style="stroke:none" d="M 30.421875 -41.109375 C 30.734375 -41.109375 31.003906 -40.988281 31.234375 -40.75 C 31.472656 -40.519531 31.578125 -40.25 31.546875 -39.9375 C 31.503906 -38.644531 31.441406 -36.375 31.359375 -33.125 C 31.285156 -29.875 31.25 -25.6875 31.25 -20.5625 C 31.25 -15.46875 31.285156 -11.285156 31.359375 -8.015625 C 31.441406 -4.742188 31.503906 -2.460938 31.546875 -1.171875 C 31.578125 -0.859375 31.472656 -0.582031 31.234375 -0.34375 C 31.003906 -0.113281 30.734375 0 30.421875 0 L 23.546875 0 C 23.234375 0 22.957031 -0.113281 22.71875 -0.34375 C 22.488281 -0.582031 22.375 -0.859375 22.375 -1.171875 C 22.414062 -2.265625 22.460938 -4.082031 22.515625 -6.625 C 22.578125 -9.175781 22.628906 -12.390625 22.671875 -16.265625 C 22.671875 -16.578125 22.550781 -16.847656 22.3125 -17.078125 C 22.082031 -17.316406 21.8125 -17.4375 21.5 -17.4375 L 12.984375 -17.4375 C 12.671875 -17.4375 12.394531 -17.316406 12.15625 -17.078125 C 11.925781 -16.847656 11.8125 -16.578125 11.8125 -16.265625 C 11.84375 -12.390625 11.890625 -9.175781 11.953125 -6.625 C 12.015625 -4.082031 12.0625 -2.265625 12.09375 -1.171875 C 12.09375 -0.859375 11.984375 -0.582031 11.765625 -0.34375 C 11.554688 -0.113281 11.273438 0 10.921875 0 L 4.109375 0 C 3.753906 0 3.46875 -0.113281 3.25 -0.34375 C 3.039062 -0.582031 2.9375 -0.859375 2.9375 -1.171875 C 2.976562 -2.460938 3.035156 -4.742188 3.109375 -8.015625 C 3.191406 -11.285156 3.234375 -15.46875 3.234375 -20.5625 C 3.234375 -25.6875 3.191406 -29.875 3.109375 -33.125 C 3.035156 -36.375 2.976562 -38.644531 2.9375 -39.9375 C 2.9375 -40.25 3.039062 -40.519531 3.25 -40.75 C 3.46875 -40.988281 3.753906 -41.109375 4.109375 -41.109375 L 10.921875 -41.109375 C 11.273438 -41.109375 11.554688 -40.988281 11.765625 -40.75 C 11.984375 -40.519531 12.09375 -40.25 12.09375 -39.9375 C 12.0625 -38.84375 12.015625 -37.019531 11.953125 -34.46875 C 11.890625 -31.925781 11.84375 -28.71875 11.8125 -24.84375 C 11.8125 -24.53125 11.925781 -24.253906 12.15625 -24.015625 C 12.394531 -23.785156 12.671875 -23.671875 12.984375 -23.671875 L 21.5 -23.671875 C 21.8125 -23.671875 22.082031 -23.785156 22.3125 -24.015625 C 22.550781 -24.253906 22.671875 -24.53125 22.671875 -24.84375 C 22.628906 -28.71875 22.578125 -31.925781 22.515625 -34.46875 C 22.460938 -37.019531 22.414062 -38.84375 22.375 -39.9375 C 22.375 -40.25 22.488281 -40.519531 22.71875 -40.75 C 22.957031 -40.988281 23.234375 -41.109375 23.546875 -41.109375 Z M 30.421875 -41.109375 "/></g></g><g style="fill:#000000;fill-opacity:1;"><g transform="translate(148.368064, 105.230876)"><path style="stroke:none" d="M 29.609375 -36.0625 C 29.609375 -35.75 29.5 -35.472656 29.28125 -35.234375 C 29.0625 -35.003906 28.773438 -34.890625 28.421875 -34.890625 L 13.09375 -34.890625 C 12.78125 -34.890625 12.503906 -34.78125 12.265625 -34.5625 C 12.035156 -34.34375 11.921875 -34.078125 11.921875 -33.765625 C 11.921875 -32.554688 11.910156 -31.207031 11.890625 -29.71875 C 11.867188 -28.226562 11.84375 -26.601562 11.8125 -24.84375 C 11.8125 -24.53125 11.925781 -24.253906 12.15625 -24.015625 C 12.394531 -23.785156 12.671875 -23.671875 12.984375 -23.671875 L 25.375 -23.671875 C 25.6875 -23.671875 25.957031 -23.550781 26.1875 -23.3125 C 26.425781 -23.082031 26.546875 -22.8125 26.546875 -22.5 L 26.546875 -18.625 C 26.546875 -18.3125 26.425781 -18.035156 26.1875 -17.796875 C 25.957031 -17.554688 25.6875 -17.4375 25.375 -17.4375 L 12.984375 -17.4375 C 12.671875 -17.4375 12.394531 -17.316406 12.15625 -17.078125 C 11.925781 -16.847656 11.8125 -16.578125 11.8125 -16.265625 C 11.84375 -14.503906 11.867188 -12.878906 11.890625 -11.390625 C 11.910156 -9.898438 11.921875 -8.550781 11.921875 -7.34375 C 11.921875 -7.03125 12.035156 -6.765625 12.265625 -6.546875 C 12.503906 -6.328125 12.78125 -6.21875 13.09375 -6.21875 L 28.421875 -6.21875 C 28.773438 -6.21875 29.0625 -6.097656 29.28125 -5.859375 C 29.5 -5.628906 29.609375 -5.359375 29.609375 -5.046875 L 29.609375 -1.171875 C 29.609375 -0.859375 29.5 -0.582031 29.28125 -0.34375 C 29.0625 -0.113281 28.773438 0 28.421875 0 L 4.109375 0 C 3.753906 0 3.46875 -0.113281 3.25 -0.34375 C 3.039062 -0.582031 2.9375 -0.859375 2.9375 -1.171875 C 2.976562 -2.460938 3.035156 -4.742188 3.109375 -8.015625 C 3.191406 -11.285156 3.234375 -15.46875 3.234375 -20.5625 C 3.234375 -25.6875 3.191406 -29.875 3.109375 -33.125 C 3.035156 -36.375 2.976562 -38.644531 2.9375 -39.9375 C 2.9375 -40.25 3.039062 -40.519531 3.25 -40.75 C 3.46875 -40.988281 3.753906 -41.109375 4.109375 -41.109375 L 28.421875 -41.109375 C 28.773438 -41.109375 29.0625 -40.988281 29.28125 -40.75 C 29.5 -40.519531 29.609375 -40.25 29.609375 -39.9375 Z M 29.609375 -36.0625 "/></g></g><g style="fill:#000000;fill-opacity:1;"><g transform="translate(173.386732, 105.230876)"><path style="stroke:none" d="M 31.546875 -28.25 C 31.546875 -27.070312 31.492188 -25.953125 31.390625 -24.890625 C 31.296875 -23.835938 31.25 -22.351562 31.25 -20.4375 C 31.25 -19.101562 31.273438 -17.984375 31.328125 -17.078125 C 31.390625 -16.179688 31.441406 -15.363281 31.484375 -14.625 C 31.523438 -13.882812 31.546875 -13.101562 31.546875 -12.28125 C 31.546875 -9.769531 31.082031 -7.601562 30.15625 -5.78125 C 29.238281 -3.957031 27.738281 -2.535156 25.65625 -1.515625 C 23.582031 -0.503906 20.765625 0 17.203125 0 L 4.109375 0 C 3.753906 0 3.46875 -0.113281 3.25 -0.34375 C 3.039062 -0.582031 2.9375 -0.859375 2.9375 -1.171875 C 2.976562 -2.460938 3.035156 -4.742188 3.109375 -8.015625 C 3.191406 -11.285156 3.234375 -15.46875 3.234375 -20.5625 C 3.234375 -25.6875 3.191406 -29.875 3.109375 -33.125 C 3.035156 -36.375 2.976562 -38.644531 2.9375 -39.9375 C 2.9375 -40.25 3.039062 -40.519531 3.25 -40.75 C 3.46875 -40.988281 3.753906 -41.109375 4.109375 -41.109375 L 17.203125 -41.109375 C 20.734375 -41.109375 23.535156 -40.5 25.609375 -39.28125 C 27.679688 -38.070312 29.164062 -36.519531 30.0625 -34.625 C 30.96875 -32.726562 31.460938 -30.722656 31.546875 -28.609375 C 31.546875 -28.523438 31.546875 -28.425781 31.546875 -28.3125 C 31.546875 -28.269531 31.546875 -28.25 31.546875 -28.25 Z M 17.09375 -6.21875 C 18.65625 -6.21875 19.804688 -6.519531 20.546875 -7.125 C 21.296875 -7.738281 21.769531 -8.503906 21.96875 -9.421875 C 22.164062 -10.347656 22.265625 -11.300781 22.265625 -12.28125 L 22.265625 -28.25 C 22.265625 -28.5625 22.234375 -29.078125 22.171875 -29.796875 C 22.109375 -30.523438 21.929688 -31.28125 21.640625 -32.0625 C 21.347656 -32.851562 20.859375 -33.519531 20.171875 -34.0625 C 19.484375 -34.613281 18.535156 -34.890625 17.328125 -34.890625 L 13.09375 -34.890625 C 12.78125 -34.890625 12.503906 -34.78125 12.265625 -34.5625 C 12.035156 -34.34375 11.921875 -34.078125 11.921875 -33.765625 C 11.878906 -32.085938 11.847656 -30.148438 11.828125 -27.953125 C 11.816406 -25.765625 11.8125 -23.300781 11.8125 -20.5625 C 11.8125 -17.851562 11.816406 -15.394531 11.828125 -13.1875 C 11.847656 -10.976562 11.878906 -9.03125 11.921875 -7.34375 C 11.921875 -7.03125 12.035156 -6.765625 12.265625 -6.546875 C 12.503906 -6.328125 12.78125 -6.21875 13.09375 -6.21875 Z M 17.09375 -6.21875 "/></g></g><g style="fill:#000000;fill-opacity:1;"><g transform="translate(201.224551, 105.230876)"><path style="stroke:none" d=""/></g></g><g style="fill:#000000;fill-opacity:1;"><g transform="translate(212.089052, 105.230876)"><path style="stroke:none" d="M 11.6875 -7.40625 C 11.6875 -7.09375 11.789062 -6.816406 12 -6.578125 C 12.21875 -6.335938 12.484375 -6.21875 12.796875 -6.21875 L 24.25 -6.21875 C 24.570312 -6.21875 24.847656 -6.097656 25.078125 -5.859375 C 25.316406 -5.628906 25.4375 -5.359375 25.4375 -5.046875 L 25.4375 -1.171875 C 25.4375 -0.859375 25.316406 -0.582031 25.078125 -0.34375 C 24.847656 -0.113281 24.570312 0 24.25 0 L 4.109375 0 C 3.796875 0 3.519531 -0.113281 3.28125 -0.34375 C 3.050781 -0.582031 2.9375 -0.859375 2.9375 -1.171875 L 2.9375 -39.9375 C 2.9375 -40.25 3.050781 -40.519531 3.28125 -40.75 C 3.519531 -40.988281 3.796875 -41.109375 4.109375 -41.109375 L 10.984375 -41.109375 C 11.335938 -41.109375 11.617188 -40.988281 11.828125 -40.75 C 12.046875 -40.519531 12.15625 -40.25 12.15625 -39.9375 C 12.15625 -38.882812 12.125 -37.226562 12.0625 -34.96875 C 12.007812 -32.71875 11.960938 -30.082031 11.921875 -27.0625 C 11.878906 -24.050781 11.828125 -20.851562 11.765625 -17.46875 C 11.710938 -14.082031 11.6875 -10.726562 11.6875 -7.40625 Z M 11.6875 -7.40625 "/></g></g><g style="fill:#000000;fill-opacity:1;"><g transform="translate(233.525174, 105.230876)"><path style="stroke:none" d="M 12.09375 -1.171875 C 12.09375 -0.859375 11.984375 -0.582031 11.765625 -0.34375 C 11.554688 -0.113281 11.273438 0 10.921875 0 L 4.109375 0 C 3.753906 0 3.46875 -0.113281 3.25 -0.34375 C 3.039062 -0.582031 2.9375 -0.859375 2.9375 -1.171875 C 2.976562 -2.460938 3.035156 -4.742188 3.109375 -8.015625 C 3.191406 -11.285156 3.234375 -15.46875 3.234375 -20.5625 C 3.234375 -25.6875 3.191406 -29.875 3.109375 -33.125 C 3.035156 -36.375 2.976562 -38.644531 2.9375 -39.9375 C 2.9375 -40.25 3.039062 -40.519531 3.25 -40.75 C 3.46875 -40.988281 3.753906 -41.109375 4.109375 -41.109375 L 10.921875 -41.109375 C 11.273438 -41.109375 11.554688 -40.988281 11.765625 -40.75 C 11.984375 -40.519531 12.09375 -40.25 12.09375 -39.9375 C 12.0625 -38.644531 12.003906 -36.375 11.921875 -33.125 C 11.847656 -29.875 11.8125 -25.6875 11.8125 -20.5625 C 11.8125 -15.46875 11.847656 -11.285156 11.921875 -8.015625 C 12.003906 -4.742188 12.0625 -2.460938 12.09375 -1.171875 Z M 12.09375 -1.171875 "/></g></g><g style="fill:#000000;fill-opacity:1;"><g transform="translate(241.922969, 105.230876)"><path style="stroke:none" d="M 12.21875 -29.78125 C 12.21875 -28.5625 12.6875 -27.585938 13.625 -26.859375 C 14.5625 -26.140625 15.785156 -25.515625 17.296875 -24.984375 C 18.804688 -24.460938 20.398438 -23.90625 22.078125 -23.3125 C 23.765625 -22.726562 25.359375 -21.972656 26.859375 -21.046875 C 28.367188 -20.128906 29.59375 -18.894531 30.53125 -17.34375 C 31.476562 -15.800781 31.953125 -13.796875 31.953125 -11.328125 C 31.953125 -8.828125 31.5 -6.6875 30.59375 -4.90625 C 29.695312 -3.125 28.203125 -1.757812 26.109375 -0.8125 C 24.015625 0.125 21.203125 0.59375 17.671875 0.59375 C 14.304688 0.59375 11.566406 0.046875 9.453125 -1.046875 C 7.335938 -2.148438 5.757812 -3.59375 4.71875 -5.375 C 3.6875 -7.15625 3.09375 -9.046875 2.9375 -11.046875 C 2.894531 -11.359375 2.988281 -11.640625 3.21875 -11.890625 C 3.457031 -12.148438 3.753906 -12.28125 4.109375 -12.28125 L 11.046875 -12.28125 C 11.742188 -12.28125 12.113281 -11.925781 12.15625 -11.21875 C 12.238281 -10.507812 12.445312 -9.722656 12.78125 -8.859375 C 13.113281 -8.003906 13.660156 -7.253906 14.421875 -6.609375 C 15.179688 -5.960938 16.226562 -5.640625 17.5625 -5.640625 C 19.125 -5.640625 20.265625 -5.898438 20.984375 -6.421875 C 21.710938 -6.953125 22.1875 -7.660156 22.40625 -8.546875 C 22.625 -9.429688 22.734375 -10.359375 22.734375 -11.328125 C 22.734375 -12.585938 22.253906 -13.585938 21.296875 -14.328125 C 20.335938 -15.078125 19.101562 -15.710938 17.59375 -16.234375 C 16.082031 -16.765625 14.484375 -17.320312 12.796875 -17.90625 C 11.117188 -18.5 9.535156 -19.253906 8.046875 -20.171875 C 6.554688 -21.097656 5.332031 -22.320312 4.375 -23.84375 C 3.414062 -25.375 2.9375 -27.351562 2.9375 -29.78125 C 2.9375 -32.28125 3.394531 -34.421875 4.3125 -36.203125 C 5.238281 -37.984375 6.738281 -39.34375 8.8125 -40.28125 C 10.882812 -41.226562 13.703125 -41.703125 17.265625 -41.703125 C 20.597656 -41.703125 23.28125 -41.148438 25.3125 -40.046875 C 27.351562 -38.953125 28.863281 -37.515625 29.84375 -35.734375 C 30.820312 -33.953125 31.390625 -32.066406 31.546875 -30.078125 C 31.546875 -29.765625 31.4375 -29.476562 31.21875 -29.21875 C 31 -28.96875 30.710938 -28.84375 30.359375 -28.84375 L 23.4375 -28.84375 C 22.726562 -28.84375 22.335938 -29.191406 22.265625 -29.890625 C 22.222656 -30.597656 22.070312 -31.378906 21.8125 -32.234375 C 21.5625 -33.097656 21.09375 -33.851562 20.40625 -34.5 C 19.71875 -35.144531 18.710938 -35.46875 17.390625 -35.46875 C 15.816406 -35.46875 14.65625 -35.203125 13.90625 -34.671875 C 13.164062 -34.148438 12.695312 -33.445312 12.5 -32.5625 C 12.3125 -31.6875 12.21875 -30.757812 12.21875 -29.78125 Z M 12.21875 -29.78125 "/></g></g><g style="fill:#000000;fill-opacity:1;"><g transform="translate(266.295434, 105.230876)"><path style="stroke:none" d="M 31.65625 -36.0625 C 31.65625 -35.75 31.535156 -35.472656 31.296875 -35.234375 C 31.066406 -35.003906 30.796875 -34.890625 30.484375 -34.890625 L 22.84375 -34.890625 C 22.53125 -34.890625 22.265625 -34.78125 22.046875 -34.5625 C 21.835938 -34.34375 21.734375 -34.078125 21.734375 -33.765625 C 21.691406 -32.085938 21.660156 -30.148438 21.640625 -27.953125 C 21.617188 -25.765625 21.609375 -23.300781 21.609375 -20.5625 C 21.609375 -15.46875 21.640625 -11.285156 21.703125 -8.015625 C 21.765625 -4.742188 21.8125 -2.460938 21.84375 -1.171875 C 21.882812 -0.859375 21.785156 -0.582031 21.546875 -0.34375 C 21.316406 -0.113281 21.046875 0 20.734375 0 L 13.859375 0 C 13.546875 0 13.269531 -0.113281 13.03125 -0.34375 C 12.800781 -0.582031 12.6875 -0.859375 12.6875 -1.171875 C 12.757812 -2.460938 12.828125 -4.742188 12.890625 -8.015625 C 12.953125 -11.285156 12.984375 -15.46875 12.984375 -20.5625 C 12.984375 -23.300781 12.972656 -25.765625 12.953125 -27.953125 C 12.929688 -30.148438 12.898438 -32.085938 12.859375 -33.765625 C 12.859375 -34.078125 12.75 -34.34375 12.53125 -34.5625 C 12.320312 -34.78125 12.039062 -34.890625 11.6875 -34.890625 L 4.109375 -34.890625 C 3.796875 -34.890625 3.519531 -35.003906 3.28125 -35.234375 C 3.050781 -35.472656 2.9375 -35.75 2.9375 -36.0625 L 2.9375 -39.9375 C 2.9375 -40.25 3.050781 -40.519531 3.28125 -40.75 C 3.519531 -40.988281 3.796875 -41.109375 4.109375 -41.109375 L 30.484375 -41.109375 C 30.796875 -41.109375 31.066406 -40.988281 31.296875 -40.75 C 31.535156 -40.519531 31.65625 -40.25 31.65625 -39.9375 Z M 31.65625 -36.0625 "/></g></g><path style=" stroke:none;fill-rule:nonzero;fill:#ffffff;fill-opacity:1;" d="M 74.898438 8.582031 C 75.703125 8.613281 76.5 8.683594 77.296875 8.792969 C 78.09375 8.902344 78.882812 9.050781 79.660156 9.238281 C 80.441406 9.429688 81.210938 9.652344 81.972656 9.917969 C 82.730469 10.179688 83.476562 10.480469 84.203125 10.816406 C 84.933594 11.152344 85.644531 11.523438 86.335938 11.929688 C 87.03125 12.335938 87.703125 12.773438 88.351562 13.246094 C 89 13.71875 89.625 14.222656 90.226562 14.753906 C 90.828125 15.289062 91.398438 15.851562 91.945312 16.441406 C 92.492188 17.03125 93.003906 17.644531 93.488281 18.285156 C 93.976562 18.925781 94.425781 19.589844 94.847656 20.273438 C 95.265625 20.957031 95.652344 21.664062 96 22.386719 C 96.351562 23.109375 96.667969 23.847656 96.945312 24.597656 C 97.222656 25.351562 97.460938 26.117188 97.664062 26.894531 C 97.867188 27.671875 98.03125 28.457031 98.15625 29.25 C 98.285156 30.042969 98.371094 30.84375 98.417969 31.644531 C 98.464844 32.445312 98.472656 33.246094 98.441406 34.050781 C 98.410156 34.851562 98.339844 35.652344 98.226562 36.449219 C 98.117188 37.242188 97.96875 38.03125 97.78125 38.8125 C 97.59375 39.59375 97.367188 40.363281 97.105469 41.121094 C 96.84375 41.882812 96.542969 42.625 96.207031 43.355469 C 95.871094 44.085938 95.5 44.796875 95.09375 45.488281 C 94.6875 46.179688 94.246094 46.851562 93.773438 47.503906 C 93.304688 48.152344 92.800781 48.777344 92.265625 49.378906 C 91.734375 49.976562 91.171875 50.550781 90.582031 51.097656 C 89.992188 51.640625 89.375 52.15625 88.734375 52.640625 C 88.097656 53.125 87.433594 53.578125 86.75 53.996094 C 86.0625 54.417969 85.359375 54.800781 84.636719 55.152344 C 83.914062 55.503906 83.175781 55.816406 82.421875 56.09375 C 81.667969 56.375 80.902344 56.613281 80.125 56.816406 C 79.347656 57.019531 78.5625 57.183594 77.769531 57.308594 C 76.976562 57.433594 76.179688 57.519531 75.378906 57.566406 C 74.578125 57.617188 73.773438 57.625 72.972656 57.589844 C 72.167969 57.558594 71.371094 57.488281 70.574219 57.378906 C 69.777344 57.269531 68.992188 57.121094 68.210938 56.933594 C 67.429688 56.746094 66.660156 56.519531 65.898438 56.257812 C 65.140625 55.992188 64.398438 55.695312 63.667969 55.359375 C 62.9375 55.019531 62.226562 54.648438 61.535156 54.242188 C 60.839844 53.835938 60.167969 53.398438 59.519531 52.925781 C 58.871094 52.453125 58.246094 51.953125 57.644531 51.417969 C 57.042969 50.882812 56.472656 50.324219 55.925781 49.734375 C 55.382812 49.144531 54.867188 48.527344 54.382812 47.886719 C 53.894531 47.246094 53.445312 46.585938 53.023438 45.898438 C 52.605469 45.214844 52.21875 44.511719 51.871094 43.789062 C 51.519531 43.066406 51.203125 42.328125 50.925781 41.574219 C 50.648438 40.820312 50.410156 40.054688 50.207031 39.277344 C 50.003906 38.5 49.839844 37.714844 49.714844 36.921875 C 49.585938 36.128906 49.5 35.332031 49.453125 34.527344 C 49.40625 33.726562 49.398438 32.925781 49.429688 32.121094 C 49.460938 31.320312 49.53125 30.519531 49.644531 29.726562 C 49.753906 28.929688 49.902344 28.140625 50.089844 27.359375 C 50.277344 26.578125 50.503906 25.808594 50.765625 25.050781 C 51.027344 24.292969 51.328125 23.546875 51.664062 22.816406 C 52 22.089844 52.371094 21.378906 52.777344 20.683594 C 53.183594 19.992188 53.625 19.320312 54.097656 18.671875 C 54.566406 18.019531 55.070312 17.394531 55.605469 16.796875 C 56.136719 16.195312 56.699219 15.621094 57.289062 15.078125 C 57.878906 14.53125 58.496094 14.015625 59.136719 13.53125 C 59.773438 13.046875 60.4375 12.59375 61.121094 12.175781 C 61.808594 11.757812 62.511719 11.371094 63.234375 11.019531 C 63.957031 10.667969 64.695312 10.355469 65.449219 10.078125 C 66.203125 9.800781 66.96875 9.558594 67.746094 9.355469 C 68.523438 9.152344 69.308594 8.988281 70.101562 8.863281 C 70.894531 8.738281 71.691406 8.652344 72.492188 8.605469 C 73.296875 8.558594 74.097656 8.550781 74.898438 8.582031 Z M 74.898438 8.582031 "/><path style=" stroke:none;fill-rule:nonzero;fill:#000000;fill-opacity:1;" d="M 99.746094 41.601562 C 95.050781 55.832031 79.652344 63.589844 65.421875 58.894531 C 51.191406 54.199219 43.433594 38.804688 48.125 24.574219 C 52.820312 10.34375 68.21875 2.582031 82.449219 7.277344 C 96.679688 11.972656 104.4375 27.367188 99.746094 41.601562 Z M 53.164062 26.234375 C 49.386719 37.6875 55.632812 50.078125 67.085938 53.855469 C 78.535156 57.632812 90.929688 51.390625 94.707031 39.9375 C 98.484375 28.484375 92.238281 16.09375 80.785156 12.316406 C 69.335938 8.539062 56.941406 14.78125 53.164062 26.234375 Z M 53.164062 26.234375 "/><path style=" stroke:none;fill-rule:nonzero;fill:#000000;fill-opacity:1;" d="M 68.710938 20.988281 C 69.359375 20.996094 70.015625 21.097656 70.664062 21.3125 C 74.011719 22.417969 75.832031 26.027344 74.726562 29.375 C 73.625 32.722656 70.011719 34.542969 66.664062 33.4375 C 63.824219 32.5 62.085938 29.761719 62.296875 26.90625 C 61.953125 27.554688 61.65625 28.238281 61.417969 28.957031 C 59.140625 35.871094 62.894531 43.324219 69.808594 45.601562 C 76.71875 47.882812 84.171875 44.128906 86.453125 37.214844 C 88.730469 30.304688 84.976562 22.851562 78.0625 20.570312 C 74.875 19.519531 71.570312 19.753906 68.710938 20.988281 Z M 68.710938 20.988281 "/></g></svg>